<svg width="268" height="32" viewBox="0 0 268 32" fill="none" xmlns="http://www.w3.org/2000/svg">
<path d="M3.29092 9.33612L3.64981 8.84055C3.29092 8.66356 3.00381 8.38038 2.86026 8.02641C2.7167 7.63703 2.75259 7.24766 2.86026 6.89368C3.00381 6.5751 3.21914 6.29192 3.47036 6.11494C3.75747 5.90255 4.04458 5.76096 4.40347 5.69016C5.04946 5.54857 5.73135 5.61937 6.37734 5.76096C7.99233 6.07954 9.60732 6.53971 11.1864 6.92908C12.7655 7.28306 14.3446 7.74323 15.9596 7.95561C16.1032 7.99101 16.2826 8.02641 16.4621 8.02641V12.3803L14.0934 14.7166L16.4621 17.0528V23.035C15.5289 23.4952 14.5241 23.8137 13.4833 23.9199C11.7606 24.1323 9.96621 23.8137 8.45889 22.9642C7.84878 22.6456 7.27456 22.2208 6.77212 21.7253L13.0885 19.1059V8.34499L5.19302 11.6724C5.98257 9.97328 7.23867 8.52197 8.81777 7.49544L8.45889 6.96448C6.41323 7.31845 4.51113 8.27419 3.0397 9.69009C1.56826 11.1414 0.563382 13.0175 0.168607 15.0351C-0.4415 18.2563 0.635159 21.7253 2.89614 24.1677C5.15713 26.6102 8.53066 27.9907 11.8683 27.8845C13.6986 27.8137 15.4931 27.3181 17.0722 26.3978C18.6513 25.4774 19.9433 24.1323 20.8046 22.5394C21.5582 21.0881 21.953 19.4598 21.8812 17.8315H21.1994C20.5534 19.4244 19.5126 20.8403 18.1847 21.9377C17.9335 22.1147 17.7182 22.2916 17.4669 22.4686V17.0882L19.8356 14.7166L17.4669 12.3449V8.0972C17.754 8.0972 18.077 8.0618 18.3642 8.02641C19.1896 7.95561 19.9791 7.67243 20.6251 7.24766C21.4147 6.7167 21.9889 5.97335 22.2401 5.08841C22.4555 4.20346 22.3478 3.24773 21.9171 2.46898C21.5224 1.72563 20.8764 1.12387 20.1227 0.734499C19.4049 0.345126 18.5436 0.132739 17.7182 0.0265479C17.2875 -0.00884929 16.8209 -0.00884929 16.3903 0.0265479V0.699102C16.7492 0.7345 17.1439 0.805295 17.5387 0.87609C17.9335 0.982283 18.2924 1.08847 18.6154 1.33626C18.7589 1.44245 18.9025 1.61944 19.0101 1.79643C19.0819 1.93802 19.1178 2.1504 19.1178 2.32739C19.0819 2.53978 19.0101 2.68137 18.9025 2.85836C18.7948 2.99995 18.6513 3.10614 18.5077 3.21233C18.1847 3.35392 17.7899 3.38932 17.431 3.38932C16.3544 3.35392 15.3136 3.03534 14.2728 2.78756C12.9091 2.50438 11.6171 2.00881 10.2892 1.58404C9.39199 1.30086 8.49477 1.05308 7.56167 0.911487C6.62856 0.805295 5.69546 0.840692 4.79824 1.05308C3.9728 1.26546 3.18325 1.65484 2.53726 2.1858C1.89126 2.71676 1.38882 3.42472 1.10171 4.20346C0.742825 5.1592 0.778714 6.25653 1.17349 7.21226C1.56826 8.168 2.35781 8.94674 3.29092 9.33612ZM4.72647 12.8759L8.45889 11.3184V19.9908L6.09023 20.9819C5.51602 20.2386 5.04946 19.389 4.72647 18.5041C4.11636 16.6988 4.15225 14.6812 4.72647 12.8759Z" fill="white"/>
<path d="M31.0009 23.7783V15.0351L32.9748 13.1945L35.1281 14.9643V23.4244C35.1281 24.8757 35.0922 26.327 34.6256 27.7075C34.3385 28.557 33.9079 29.3358 33.2619 29.9729C32.6876 30.5039 31.934 30.8933 31.1803 31.0702V31.9198C32.6159 32.1322 34.1232 31.9198 35.4511 31.318C36.7431 30.7517 37.8197 29.8313 38.5734 28.6632C39.0758 27.8491 39.4347 26.9287 39.5783 25.973C39.7577 25.0173 39.7577 24.0615 39.7577 23.1058V13.867L41.3009 12.6281L40.6908 11.8493L39.2553 12.9821L35.4511 9.86708L31.0009 14.0086V0.87609H30.319L24.4691 4.94681V5.44238C24.7563 5.54857 25.0075 5.65477 25.2946 5.79636C25.5458 5.90255 25.7611 6.07954 25.9406 6.29192C26.0124 6.43351 26.0841 6.6105 26.12 6.78749C26.1918 6.96448 26.1918 7.14147 26.1918 7.31845V23.4244L23.7873 24.9465L24.3974 25.7606L25.7611 24.9111L29.4577 28.0261L33.9079 24.9465L33.2619 24.1677L32.1493 24.9111L31.0009 23.7783Z" fill="white"/>
<path d="M41.8861 25.7252L43.4652 24.4509L48.8126 28.3446L56.2057 22.4332L55.7032 21.5837L51.7196 24.6279L47.4129 21.7253V20.2032L55.1649 15.4599V15.2829L51.5401 9.86708L42.9627 14.2564V23.6014L41.276 24.9465L41.8861 25.7252ZM47.4129 19.3536V12.9467L48.1307 12.5573L51.2171 16.982L47.4129 19.3536Z" fill="white"/>
<path d="M66.8172 18.3979H67.4991C67.4632 18.1501 67.4632 17.8669 67.535 17.6192C67.6426 17.1944 67.9297 16.8404 68.2886 16.5926C68.4681 16.4864 68.6834 16.4156 68.8987 16.3802C69.1141 16.3448 69.3294 16.3448 69.5806 16.3448C69.8677 16.3448 70.1548 16.3448 70.4419 16.3448V26.2208C70.4419 26.5394 70.4419 26.8579 70.3343 27.1411C70.2266 27.4243 70.0472 27.6721 69.8318 27.8845C69.5447 28.1676 69.15 28.38 68.7193 28.4862V29.6543C70.5137 29.265 72.2364 28.5924 73.5643 27.3535C74.1385 26.8579 74.605 26.2562 74.8921 25.5482C75.1434 24.8403 75.1793 24.0969 75.1793 23.3182V8.0618C75.1793 7.14146 75.251 6.22113 75.6458 5.37158C76.0047 4.52204 76.6507 3.81409 77.2967 3.14154C78.158 2.36279 79.0911 1.65484 80.0242 0.946885L79.2347 0.238933C78.2298 0.982284 77.0096 1.40705 75.7535 1.47785C74.6409 1.54864 73.5284 1.33626 72.4517 1.05308C71.3751 0.805295 70.2625 0.557511 69.15 0.486717C67.9297 0.451318 66.6377 0.734499 65.6329 1.44245C64.5921 2.1504 63.8743 3.24773 63.659 4.45125C63.4795 5.51318 63.6949 6.6105 64.2332 7.53084C64.7715 8.41578 65.6329 9.15913 66.6377 9.47771L66.7813 9.19453C66.3865 9.05294 66.0276 8.76976 65.8123 8.41578C65.597 8.02641 65.4893 7.56624 65.5611 7.14146C65.6688 6.5751 66.0276 6.07954 66.5301 5.76096C66.9966 5.40698 67.5709 5.23 68.1451 5.1592C69.5088 5.01761 70.8726 5.33619 72.2364 5.40698C73.0977 5.44238 73.9231 5.37158 74.7486 5.23C73.4925 6.11493 72.2364 7.03527 71.3033 8.20339C71.0162 8.62816 70.7649 9.05294 70.6214 9.51311C70.4778 10.0087 70.4419 10.5042 70.4419 10.9644V12.4157C69.7601 12.5219 69.0423 12.6281 68.3963 12.9467C67.8939 13.1945 67.4273 13.513 67.0684 13.9378C66.7454 14.3626 66.4942 14.8935 66.3865 15.4245C66.1353 16.4156 66.3148 17.513 66.8172 18.3979ZM82.9671 1.33626C82.357 2.36279 81.9622 3.49551 81.711 4.66363C81.4957 5.83175 81.4598 7.03527 81.4598 8.20339V18.6811C81.4598 20.7341 81.388 22.7872 80.6343 24.6633C79.9165 26.5748 78.5528 28.203 76.8301 29.3358C75.3946 30.2915 73.7437 30.8933 72.021 31.1764C69.9395 31.5304 67.7144 31.3888 65.8482 30.4685C64.8792 30.0083 64.0538 29.3004 63.4437 28.4508C62.8694 27.5659 62.5823 26.504 62.69 25.442C62.7977 24.6987 63.1565 23.9553 63.6949 23.4244C64.2691 22.8934 65.0228 22.5394 65.8123 22.5394C66.5301 22.5394 67.2479 22.8226 67.7862 23.3182C68.2886 23.8137 68.5757 24.5217 68.5757 25.2296C68.5757 25.6544 68.4322 26.0792 68.2527 26.4332C68.0374 26.7871 67.7144 27.1057 67.3555 27.3181C66.6377 27.7783 65.6688 27.8491 64.9151 27.4597C65.5611 28.8756 66.8531 29.9375 68.3604 30.3269C69.3653 30.6101 70.4419 30.5747 71.4468 30.3269C72.4876 30.0791 73.4207 29.5836 74.2103 28.911C75.1434 28.1676 75.8611 27.1765 76.2559 26.0792C76.6866 24.9819 76.7225 23.7783 76.7225 22.6102V11.106C76.7225 10.0087 76.7225 8.87595 76.9019 7.77862C77.0455 6.6459 77.4402 5.58397 78.0862 4.66363C79.0552 3.31853 80.4549 2.43358 81.7828 1.44245C82.034 1.26546 82.2852 1.08847 82.5364 0.911487L82.9671 1.33626Z" fill="white"/>
<path d="M86.0796 24.0969L90.9604 28.1322L95.4824 24.6279C95.5183 24.8757 95.5542 25.0881 95.5901 25.3358C95.7336 26.0792 96.0925 26.8225 96.6667 27.3535C97.0974 27.7429 97.6716 27.9907 98.2458 28.0615L102.552 25.1588L101.871 24.2739L100.543 25.3358C100.256 25.1588 100.04 24.8757 99.8608 24.5571C99.6096 24.0615 99.5737 23.4952 99.5737 22.9288V21.4421V12.9821L101.117 11.814L100.579 11.1414L99.3225 11.9909L96.9538 9.93788L93.5803 13.0175L95.4465 14.6458V21.9023V22.9996C95.4465 23.212 95.4465 23.4244 95.4465 23.6368L93.7239 24.8757L91.4988 22.7518V14.2564C91.4988 13.7962 91.4629 13.3714 91.3552 12.9467C91.2476 12.4865 91.0681 12.0971 90.8169 11.7078C90.4939 11.2476 90.0991 10.8582 89.6326 10.5042C89.3455 10.2919 88.9866 10.1503 88.6636 10.0087L84.0339 12.9467L84.3928 13.4422C84.644 13.2653 84.8953 13.0883 85.2183 12.9821C85.3259 12.9467 85.4336 12.9113 85.5413 12.9113C85.7925 12.8405 86.0437 12.8759 86.259 12.9821C86.5103 13.0883 86.7256 13.2299 86.8691 13.4422C87.0127 13.6546 87.0845 13.9024 87.1562 14.1502C87.1921 14.398 87.1921 14.6458 87.1921 14.8935V23.1766L86.0796 24.0969Z" fill="white"/>
<path d="M117.331 9.93788H116.326C116.326 9.97327 116.326 9.97328 116.326 9.97328L116.29 9.93788C116.254 10.398 116.039 10.7874 115.68 11.0706C115.357 11.283 114.962 11.4246 114.531 11.4246C114.137 11.4246 113.742 11.3184 113.383 11.1768C112.773 10.8936 112.27 10.4334 111.876 9.86708L104.483 14.1148V19.0705L107.174 21.1943C106.887 21.4775 106.6 21.7607 106.313 22.0439C105.344 22.9996 104.375 24.0261 103.98 25.3004C103.693 26.1854 103.693 27.1411 104.088 27.9907C104.447 28.8402 105.164 29.5128 106.026 29.8667L106.385 28.911C106.169 28.8048 105.99 28.6278 105.918 28.4154C105.846 28.1676 105.846 27.8845 105.918 27.6367C106.026 27.3889 106.205 27.1765 106.421 27.0349C106.708 26.8225 107.102 26.7163 107.461 26.7163C107.856 26.6809 108.215 26.7871 108.574 26.9287C109.256 27.1765 109.83 27.7075 110.189 28.3446L117.295 24.0969V18.7519L114.208 16.5218C114.603 16.1679 114.962 15.8139 115.285 15.4245C115.716 14.8935 116.039 14.3272 116.326 13.7254C116.864 12.5573 117.187 11.2476 117.331 9.93788ZM110.655 19.4952L112.665 21.0881V25.6898C112.199 24.6987 111.409 23.8845 110.44 23.4244C109.722 23.0704 108.933 22.9288 108.143 22.9642C107.354 23.035 106.6 23.3182 105.99 23.7783C106.313 23.4244 106.672 23.0704 107.031 22.7164C107.784 22.0085 108.574 21.3005 109.399 20.5926L110.655 19.4952ZM110.584 18.2917L109.112 16.7696V12.1679C109.507 13.1591 110.332 14.0086 111.337 14.4334C112.019 14.752 112.809 14.8581 113.562 14.752C113.993 14.6812 114.424 14.575 114.819 14.398C114.711 14.5396 114.603 14.6812 114.496 14.8227C114.101 15.2829 113.67 15.6723 113.239 16.0263L110.584 18.2917Z" fill="white"/>
<path d="M126.155 23.7783V12.8051H128.739L130.426 10.8582H126.155V6.78749H125.473L119.623 12.5927V13.0883C119.91 13.0883 120.197 13.1237 120.449 13.2653C120.7 13.3714 120.915 13.5484 121.095 13.7608C121.166 13.9378 121.238 14.0794 121.274 14.2564C121.31 14.4334 121.346 14.6104 121.346 14.7873V23.4244L118.941 24.9465L119.444 25.6544L120.807 24.8049L124.612 28.0261L129.528 25.4774L129.026 24.8049L127.842 25.442L126.155 23.7783Z" fill="white"/>
<path d="M140.702 23.9553L139.159 24.9465L137.938 23.7783V13.0883L135.211 9.86708L130.402 13.0883L130.904 13.7608L132.268 12.9113L133.488 14.4334V23.7783L131.227 25.3004L131.766 25.973L132.95 25.1235L136.395 28.1676L141.563 24.6279L140.702 23.9553ZM132.34 5.08841L135.39 8.52197L138.836 5.54858L135.749 2.11501L132.34 5.08841Z" fill="white"/>
<path d="M149.372 23.6368C150.054 24.0615 150.843 24.2739 151.633 24.2739L153.715 22.8226L154.181 23.4244L148.905 27.9907H148.403L142.984 24.3801V13.7962L150.377 9.69009L154.181 12.6989L150.772 15.2475L147.578 12.6281V21.8315C147.972 22.6102 148.618 23.212 149.372 23.6368Z" fill="white"/>
<path d="M154.774 25.7252L156.353 24.4509L161.701 28.3446L169.094 22.4332L168.591 21.5837L164.608 24.6279L160.301 21.7253V20.2032L168.053 15.4599V15.2829L164.428 9.86708L155.851 14.2564V23.6014L154.164 24.9465L154.774 25.7252ZM160.301 19.3536V12.9467L161.019 12.5573L164.105 16.982L160.301 19.3536Z" fill="white"/>
<path d="M178.844 9.33612L179.203 8.84055C178.844 8.66356 178.557 8.38038 178.413 8.02641C178.27 7.63703 178.306 7.24766 178.413 6.89368C178.557 6.5751 178.772 6.29192 179.023 6.11494C179.31 5.90255 179.598 5.76096 179.956 5.69016C180.602 5.54857 181.284 5.61937 181.93 5.76096C183.545 6.07954 185.16 6.53971 186.739 6.92908C188.318 7.28306 189.898 7.74323 191.513 7.95561C191.656 7.99101 191.836 8.02641 192.015 8.02641V12.3803L189.646 14.7166L192.015 17.0528V23.035C191.082 23.4952 190.077 23.8137 189.036 23.9199C187.314 24.1323 185.519 23.8137 184.012 22.9642C183.402 22.6456 182.828 22.2208 182.325 21.7253L188.641 19.1059V8.34499L180.746 11.6724C181.536 9.97328 182.792 8.52197 184.371 7.49544L184.012 6.96448C181.966 7.31845 180.064 8.27419 178.593 9.69009C177.121 11.1414 176.116 13.0175 175.722 15.0351C175.111 18.2563 176.188 21.7253 178.449 24.1677C180.71 26.6102 184.084 27.9907 187.421 27.8845C189.252 27.8137 191.046 27.3181 192.625 26.3978C194.204 25.4774 195.496 24.1323 196.358 22.5394C197.111 21.0881 197.506 19.4598 197.434 17.8315H196.752C196.106 19.4244 195.066 20.8403 193.738 21.9377C193.486 22.1147 193.271 22.2916 193.02 22.4686V17.0882L195.389 14.7166L193.02 12.3449V8.0972C193.307 8.0972 193.63 8.0618 193.917 8.02641C194.743 7.95561 195.532 7.67243 196.178 7.24766C196.968 6.7167 197.542 5.97335 197.793 5.08841C198.008 4.20346 197.901 3.24773 197.47 2.46898C197.075 1.72563 196.429 1.12387 195.676 0.734499C194.958 0.345126 194.097 0.132739 193.271 0.0265479C192.84 -0.00884929 192.374 -0.00884929 191.943 0.0265479V0.699102C192.302 0.7345 192.697 0.805295 193.092 0.87609C193.486 0.982283 193.845 1.08847 194.168 1.33626C194.312 1.44245 194.455 1.61944 194.563 1.79643C194.635 1.93802 194.671 2.1504 194.671 2.32739C194.635 2.53978 194.563 2.68137 194.455 2.85836C194.348 2.99995 194.204 3.10614 194.061 3.21233C193.738 3.35392 193.343 3.38932 192.984 3.38932C191.907 3.35392 190.867 3.03534 189.826 2.78756C188.462 2.50438 187.17 2.00881 185.842 1.58404C184.945 1.30086 184.048 1.05308 183.115 0.911487C182.182 0.805295 181.248 0.840692 180.351 1.05308C179.526 1.26546 178.736 1.65484 178.09 2.1858C177.444 2.71676 176.942 3.42472 176.655 4.20346C176.296 5.1592 176.332 6.25653 176.726 7.21226C177.121 8.168 177.911 8.94674 178.844 9.33612ZM180.279 12.8759L184.012 11.3184V19.9908L181.643 20.9819C181.069 20.2386 180.602 19.389 180.279 18.5041C179.669 16.6988 179.705 14.6812 180.279 12.8759Z" fill="white"/>
<path d="M209.64 23.9553L208.097 24.9465L206.877 23.7783V13.0883L204.149 9.86708L199.34 13.0883L199.843 13.7608L201.206 12.9113L202.427 14.4334V23.7783L200.166 25.3004L200.704 25.973L201.888 25.1235L205.334 28.1676L210.502 24.6279L209.64 23.9553ZM201.278 5.08841L204.329 8.52197L207.774 5.54858L204.688 2.11501L201.278 5.08841Z" fill="white"/>
<path d="M228.43 25.3712L226.563 23.7429V14.2918L228.466 13.1591L230.942 15.3891V24.0969L229.435 25.4774L232.988 28.5216L238.299 25.1235V23.8137L236.756 24.9465L235.069 23.2828V14.398L236.863 12.9467L236.217 12.2033L235.033 13.1237L231.301 9.97328L226.384 12.9821L222.795 9.97328L218.094 12.8759L215.474 9.97328L210.485 13.336L210.988 14.044L212.352 13.1945L213.751 14.7166V24.0969L212.352 25.3004L216.479 28.5216L219.924 25.4774L218.381 24.0969V14.0794L219.96 13.1591L222.436 15.3891V24.0969L220.929 25.4774L224.482 28.5216L228.43 25.3712Z" fill="white"/>
<path d="M238.888 25.7252L240.467 24.4509L245.815 28.3446L253.208 22.4332L252.705 21.5837L248.722 24.6279L244.415 21.7253V20.2032L252.167 15.4599V15.2829L248.542 9.86708L239.965 14.2564V23.6014L238.278 24.9465L238.888 25.7252ZM244.415 19.3536V12.9467L245.133 12.5573L248.219 16.982L244.415 19.3536Z" fill="white"/>
<path d="M268 9.93788H266.995C266.995 9.97327 266.995 9.97328 266.995 9.97328L266.959 9.93788C266.923 10.398 266.708 10.7874 266.349 11.0706C266.026 11.283 265.631 11.4246 265.201 11.4246C264.806 11.4246 264.411 11.3184 264.052 11.1768C263.442 10.8936 262.94 10.4334 262.545 9.86708L255.152 14.1148V19.0705L257.844 21.1943C257.556 21.4775 257.269 21.7607 256.982 22.0439C256.013 22.9996 255.044 24.0261 254.649 25.3004C254.362 26.1854 254.362 27.1411 254.757 27.9907C255.116 28.8402 255.834 29.5128 256.695 29.8667L257.054 28.911C256.839 28.8048 256.659 28.6278 256.587 28.4154C256.516 28.1676 256.516 27.8845 256.587 27.6367C256.695 27.3889 256.875 27.1765 257.09 27.0349C257.377 26.8225 257.772 26.7163 258.131 26.7163C258.525 26.6809 258.884 26.7871 259.243 26.9287C259.925 27.1765 260.499 27.7075 260.858 28.3446L267.964 24.0969V18.7519L264.878 16.5218C265.272 16.1679 265.631 15.8139 265.954 15.4245C266.385 14.8935 266.708 14.3272 266.995 13.7254C267.533 12.5573 267.856 11.2476 268 9.93788ZM261.325 19.4952L263.334 21.0881V25.6898C262.868 24.6987 262.078 23.8845 261.109 23.4244C260.392 23.0704 259.602 22.9288 258.812 22.9642C258.023 23.035 257.269 23.3182 256.659 23.7783C256.982 23.4244 257.341 23.0704 257.7 22.7164C258.454 22.0085 259.243 21.3005 260.069 20.5926L261.325 19.4952ZM261.253 18.2917L259.782 16.7696V12.1679C260.176 13.1591 261.002 14.0086 262.007 14.4334C262.688 14.752 263.478 14.8581 264.232 14.752C264.662 14.6812 265.093 14.575 265.488 14.398C265.38 14.5396 265.272 14.6812 265.165 14.8227C264.77 15.2829 264.339 15.6723 263.909 16.0263L261.253 18.2917Z" fill="white"/>
</svg>
