<svg width="20" height="14" viewBox="0 0 20 14" fill="none" xmlns="http://www.w3.org/2000/svg">
<path d="M9.99973 4.19897C8.49517 4.19897 7.27246 5.45429 7.27246 6.99897C7.27246 8.54365 8.49517 9.79897 9.99973 9.79897C11.5043 9.79897 12.727 8.54365 12.727 6.99897C12.727 5.45429 11.5042 4.19897 9.99973 4.19897Z" fill="#8C8C8C"/>
<path d="M10 0C5.45454 0 1.57274 2.90264 0 7C1.57274 11.0973 5.45454 14 10 14C14.55 14 18.4273 11.0973 20 7C18.4273 2.90264 14.55 0 10 0ZM10 11.6666C7.49091 11.6666 5.45454 9.57596 5.45454 6.99996C5.45454 4.42396 7.49091 2.33332 10 2.33332C12.5091 2.33332 14.5455 4.424 14.5455 7C14.5455 9.576 12.5091 11.6666 10 11.6666Z" fill="#8C8C8C"/>
</svg>
